<svg width="32" height="28" viewBox="0 0 32 28" fill="none" xmlns="http://www.w3.org/2000/svg">
<mask id="mask0_101_30" style="mask-type:alpha" maskUnits="userSpaceOnUse" x="0" y="0" width="32" height="28">
<path d="M0.522616 15.9479L7.26861 27.6383C7.39839 27.8619 7.63708 27.9996 7.89545 28H21.3841C22.778 27.9997 24.065 27.2527 24.7571 26.0422L31.5031 14.3518C31.6324 14.1292 31.6324 13.8543 31.5031 13.6317L24.7571 1.94785C24.0619 0.741718 22.7757 -0.00103084 21.3841 -1.05866e-05H7.89545C7.63671 -0.000941019 7.39739 0.137155 7.26861 0.361692L0.522616 12.0488C-0.174205 13.255 -0.174205 14.7417 0.522616 15.9479Z" fill="white"/>
</mask>
<g mask="url(#mask0_101_30)">
<path d="M33.3735 14L33.3768 24.2935L15.5566 34.5869V24.2968L33.3735 14Z" fill="#464649"/>
<path d="M15.5566 -6.59017C15.5544 -0.220325 18.9508 5.66627 24.4651 8.85001L33.3768 3.70328L15.5566 -6.59017Z" fill="#161616"/>
<path d="M33.3743 14.0001L24.4658 8.85001L33.3776 3.70328L33.3743 14.0001Z" fill="#212121"/>
<path d="M24.4658 19.1468V8.85004L33.3743 14.0001L24.4658 19.1468Z" fill="#323233"/>
<path d="M15.5566 24.2969L24.4651 19.1468V8.85004L15.5566 14.0001V24.2969Z" fill="url(#paint0_linear_101_30)"/>
<path d="M6.64551 29.4402L24.4657 19.1534C24.4667 25.5221 21.0705 31.4071 15.5573 34.5903L6.64551 29.4402Z" fill="#3E3E3F"/>
<path d="M3.21973 0.534278L24.466 8.85001C18.9517 5.66627 15.5553 -0.220325 15.5575 -6.59017L3.21973 0.534278Z" fill="black"/>
<path d="M6.64551 19.1468L15.5573 24.2969V14.0001L6.64551 8.85004V19.1468Z" fill="url(#paint1_linear_101_30)"/>
<path d="M-2.2666 3.70328L6.64515 8.85001V29.4402L-2.2666 24.2935V3.70328Z" fill="#262626"/>
<path d="M-2.25684 24.2935L6.65491 29.4402L15.5667 24.2968V14.01C7.63331 9.42406 -2.25684 15.1415 -2.25684 24.2935Z" fill="#2E2F30"/>
<path d="M-2.25684 3.70331L6.64496 8.85004L15.56 5.66444V4.39352C15.5589 3.96596 15.3302 3.57139 14.9597 3.3582L6.64496 -1.44342L-2.25684 3.70331Z" fill="#161616"/>
<path d="M15.0299 4.00522L6.64551 8.84998L15.5573 14L24.4657 8.84998L16.078 4.00522C15.7533 3.81927 15.3545 3.81927 15.0299 4.00522Z" fill="url(#paint2_linear_101_30)"/>
<path opacity="0.55" d="M8.15788 20.0195L15.5573 24.2969V14.01L6.64551 8.85004V17.4146C6.65119 18.4901 7.22695 19.4818 8.15788 20.0195Z" fill="url(#paint3_linear_101_30)"/>
</g>
<defs>
<linearGradient id="paint0_linear_101_30" x1="20.7529" y1="20.4376" x2="17.0334" y2="14.0002" gradientUnits="userSpaceOnUse">
<stop stop-color="#ED1E79"/>
<stop offset="1" stop-color="#C28EEB"/>
</linearGradient>
<linearGradient id="paint1_linear_101_30" x1="6.64551" y1="16.5751" x2="15.5573" y2="16.5751" gradientUnits="userSpaceOnUse">
<stop stop-color="#ED1E79"/>
<stop offset="1" stop-color="#9E005D"/>
</linearGradient>
<linearGradient id="paint2_linear_101_30" x1="15.5539" y1="14" x2="15.5539" y2="3.86585" gradientUnits="userSpaceOnUse">
<stop stop-color="#ED1E79"/>
<stop offset="1" stop-color="#FFA367"/>
</linearGradient>
<linearGradient id="paint3_linear_101_30" x1="6.64551" y1="16.5751" x2="15.5573" y2="16.5751" gradientUnits="userSpaceOnUse">
<stop stop-color="#ED1E79"/>
<stop offset="1" stop-color="#9E005D"/>
</linearGradient>
</defs>
</svg>
