<svg xmlns="http://www.w3.org/2000/svg" width="64" height="64" viewBox="0 0 64 64" fill="none">
  <rect width="64" height="64" rx="16" fill="#A8CF8C"/>
  <rect x="10" y="10" width="44" height="44" rx="12" fill="#486E3C"/>
  <path d="M32 19C24.82 19 19 24.82 19 32C19 39.18 24.82 45 32 45C37.3 45 41.86 41.84 43.92 37.3H36.7C35.53 38.45 33.93 39.16 32.17 39.16C28.58 39.16 25.67 36.25 25.67 32.66C25.67 29.07 28.58 26.16 32.17 26.16C34.77 26.16 37 27.68 38.03 29.9H31.8V35.22H44.5V32.66C44.5 25.11 38.39 19 30.84 19H32Z" fill="white"/>
</svg>
